<?xml version="1.0" encoding="UTF-8"?><svg id="Calque_2" xmlns="http://www.w3.org/2000/svg" viewBox="0 0 107.79 52.03"><defs><style>.cls-1{fill:#fff;}.cls-2{fill:#1a1449;}.cls-3{fill:#2c5288;}.cls-4{fill:#1f7d43;}.cls-5{fill:#504f4f;}</style></defs><g id="Calque_1-2"><g id="Logo_1"><path class="cls-4" d="m98.83,6.66H18.75c-.53-2.02-2.37-3.52-4.56-3.52-2.6,0-4.72,2.12-4.72,4.72s2.12,4.72,4.72,4.72c2.14,0,3.94-1.43,4.52-3.37h22.24c1.56,0,1.6,3.14.03,3.14h-10.36c-.56,0-1.01.45-1.01,1.01v.53c0,.56.45,1.01,1.01,1.01h17.83c1.49,0,1.47,3.14.05,3.14H9.28c-.53-2.02-2.37-3.52-4.56-3.52-2.6,0-4.72,2.12-4.72,4.72s2.12,4.72,4.72,4.72c2.14,0,3.94-1.43,4.52-3.37h33.94c1.65,0,1.65,3.17-.01,3.17h-21.12c-.56,0-1.01.45-1.01,1.01v.53c0,.56.45,1.01,1.01,1.01h17.56c1.48,0,1.5,3.17.04,3.17h-20.8c-.53-2.02-2.37-3.52-4.56-3.52-2.6,0-4.72,2.12-4.72,4.72s2.12,4.72,4.72,4.72c2.14,0,3.94-1.43,4.52-3.37h24.83c1.34,0,1.38,3.17.03,3.17h-13.05c-.56,0-1.01.45-1.01,1.01v.53c0,.56.45,1.01,1.01,1.01h8.19c1.08,0,1.29,3.17-.04,3.17h-12.37c-.53-2.02-2.37-3.52-4.56-3.52-2.6,0-4.72,2.12-4.72,4.72s2.12,4.72,4.72,4.72c2.14,0,3.94-1.43,4.52-3.37h9.48s3.8,3.17,8.81,3.17h54.2c1.83,0,2.2-1.3,2.2-2.98V8.75c0-2.28-2.22-2.08-2.22-2.08ZM14.18,10.94c-1.69,0-3.07-1.37-3.07-3.07s1.37-3.07,3.07-3.07,3.07,1.37,3.07,3.07-1.37,3.07-3.07,3.07Zm-9.46,11.37c-1.69,0-3.07-1.37-3.07-3.07s1.37-3.07,3.07-3.07,3.07,1.37,3.07,3.07-1.37,3.07-3.07,3.07Zm9.57,11.43c-1.69,0-3.07-1.37-3.07-3.07s1.37-3.07,3.07-3.07,3.07,1.37,3.07,3.07-1.37,3.07-3.07,3.07Zm7.55,11.43c-1.69,0-3.07-1.37-3.07-3.07s1.37-3.07,3.07-3.07,3.07,1.37,3.07,3.07-1.37,3.07-3.07,3.07Z"/><path class="cls-3" d="m57.8,17.36s11.6.56,16.89,4.28v14.08s-7.55-4.39-14.64-3.38c-.9-6.87-2.25-14.98-2.25-14.98Z"/><path class="cls-1" d="m61.18,20.96c3.93-.89,8.52,0,11.49,2.82-3.7-1.59-7.48-2.3-11.49-2.82h0Z"/><path class="cls-1" d="m61.18,23.82c3.93-.89,8.52,0,11.49,2.82-3.7-1.59-7.48-2.3-11.49-2.82h0Z"/><path class="cls-1" d="m61.18,26.14c3.93-.89,8.52,0,11.49,2.82-3.7-1.59-7.48-2.3-11.49-2.82h0Z"/><path class="cls-1" d="m61.18,29c3.93-.89,8.52,0,11.49,2.82-3.7-1.59-7.48-2.3-11.49-2.82h0Z"/><path class="cls-3" d="m91.59,17.36s-11.6.56-16.89,4.28c0,3.15,0,14.08,0,14.08,0,0,7.55-4.39,14.64-3.38.9-6.87,2.25-14.98,2.25-14.98Z"/><path class="cls-1" d="m88.21,20.96c-4.01.53-7.78,1.23-11.49,2.82,2.97-2.82,7.56-3.72,11.49-2.82h0Z"/><path class="cls-1" d="m88.21,23.82c-4.01.53-7.78,1.23-11.49,2.82,2.97-2.82,7.56-3.72,11.49-2.82h0Z"/><path class="cls-1" d="m88.21,26.14c-4.01.53-7.78,1.23-11.49,2.82,2.97-2.82,7.56-3.72,11.49-2.82h0Z"/><path class="cls-1" d="m88.21,29c-4.01.53-7.78,1.23-11.49,2.82,2.97-2.82,7.56-3.72,11.49-2.82h0Z"/><path class="cls-2" d="m91.93,20.4s-1.41,10.14-1.63,12.84c-11.54,0-15.6,3.83-15.6,3.83,0,0-4.05-3.83-15.6-3.83-.23-2.7-1.63-12.84-1.63-12.84h-1.46l2.31,15.32s10.14-.79,16.39,3.83c6.25-4.62,16.39-3.83,16.39-3.83l2.31-15.32h-1.46Z"/><path class="cls-5" d="m103.01.98h-22.39c-.48-.6-1.22-.98-2.04-.98h-8.03l1.44,1.32h0l2.14,1.97h28.87c1.36,0,2.46,1.1,2.46,2.46v41.49c0,1.36-1.1,2.46-2.46,2.46h-61.41c.34.99,2.22,2.32,2.83,2.32h58.58c2.64,0,4.78-2.14,4.78-4.78V5.76c0-2.64-2.14-4.78-4.78-4.78Z"/><path class="cls-5" d="m68.46,1.32h0l-1.43-1.32h-2.04c-.83,0-1.56.38-2.04.98h-17.87c-1.79,0-3.07,1.36-3.48,2.32h28.99l-2.14-1.97Z"/></g></g></svg>