<?xml version="1.0" encoding="UTF-8"?><svg id="Calque_1" xmlns="http://www.w3.org/2000/svg" viewBox="0 0 239.78 325.98"><defs><style>.cls-1{fill:#fff;}.cls-2{fill:#1a1449;}.cls-3{letter-spacing:0em;}.cls-4{fill:#2c5288;}.cls-5{letter-spacing:0em;}.cls-6,.cls-7{fill:#60a652;}.cls-8{letter-spacing:-.02em;}.cls-9{letter-spacing:0em;}.cls-7{font-family:Bahnschrift-Bold, Bahnschrift;font-size:19.2px;font-variation-settings:'wght' 700, 'wdth' 100;font-weight:700;}</style></defs><rect class="cls-2" width="239.78" height="325.98"/><g id="Logo_1"><path class="cls-6" d="m175.28,127.12h-100.21c-.67-2.53-2.97-4.41-5.71-4.41-3.26,0-5.91,2.65-5.91,5.91s2.65,5.91,5.91,5.91c2.67,0,4.93-1.78,5.66-4.22h27.83c1.96,0,2.01,3.93.04,3.93h-12.96c-.7,0-1.26.57-1.26,1.26v.66c0,.7.57,1.26,1.26,1.26h22.31c1.86,0,1.84,3.93.06,3.93h-49.07c-.67-2.53-2.97-4.41-5.71-4.41-3.26,0-5.91,2.65-5.91,5.91s2.65,5.91,5.91,5.91c2.67,0,4.93-1.78,5.66-4.22h42.47c2.06,0,2.06,3.96-.01,3.96h-26.43c-.7,0-1.26.57-1.26,1.26v.66c0,.7.57,1.26,1.26,1.26h21.98c1.85,0,1.88,3.96.05,3.96h-26.03c-.67-2.53-2.97-4.41-5.71-4.41-3.26,0-5.91,2.65-5.91,5.91s2.65,5.91,5.91,5.91c2.67,0,4.93-1.78,5.66-4.22h31.06c1.68,0,1.73,3.96.04,3.96h-16.33c-.7,0-1.26.57-1.26,1.26v.66c0,.7.57,1.26,1.26,1.26h10.25c1.35,0,1.61,3.96-.05,3.96h-15.48c-.67-2.53-2.97-4.41-5.71-4.41-3.26,0-5.91,2.65-5.91,5.91s2.65,5.91,5.91,5.91c2.67,0,4.93-1.78,5.66-4.22h11.86s4.76,3.96,11.03,3.96h67.82c2.29,0,2.75-1.62,2.75-3.73v-43.65c0-2.85-2.78-2.61-2.78-2.61Zm-105.92,5.34c-2.12,0-3.84-1.72-3.84-3.84s1.72-3.84,3.84-3.84,3.84,1.72,3.84,3.84-1.72,3.84-3.84,3.84Zm-11.84,14.23c-2.12,0-3.84-1.72-3.84-3.84s1.72-3.84,3.84-3.84,3.84,1.72,3.84,3.84-1.72,3.84-3.84,3.84Zm11.98,14.3c-2.12,0-3.84-1.72-3.84-3.84s1.72-3.84,3.84-3.84,3.84,1.72,3.84,3.84-1.72,3.84-3.84,3.84Zm9.44,14.3c-2.12,0-3.84-1.72-3.84-3.84s1.72-3.84,3.84-3.84,3.84,1.72,3.84,3.84-1.72,3.84-3.84,3.84Z"/><path class="cls-4" d="m123.94,140.5s14.51.7,21.14,5.35v17.61s-9.44-5.5-18.32-4.23c-1.13-8.6-2.82-18.74-2.82-18.74Z"/><path class="cls-1" d="m128.17,145.01c4.93-.93,10.56.15,14.37,3.53-4.53-2.15-9.41-3.06-14.37-3.53h0Z"/><path class="cls-1" d="m128.17,148.58c4.93-.93,10.56.15,14.37,3.53-4.53-2.15-9.41-3.06-14.37-3.53h0Z"/><path class="cls-1" d="m128.17,151.49c4.93-.93,10.56.15,14.37,3.53-4.53-2.15-9.41-3.06-14.37-3.53h0Z"/><path class="cls-1" d="m128.17,155.06c4.93-.93,10.56.15,14.37,3.53-4.53-2.15-9.41-3.06-14.37-3.53h0Z"/><path class="cls-4" d="m166.22,140.5s-14.51.7-21.14,5.35c0,3.95,0,17.61,0,17.61,0,0,9.44-5.5,18.32-4.23,1.13-8.6,2.82-18.74,2.82-18.74Z"/><path class="cls-1" d="m161.99,145.01c-4.96.47-9.84,1.38-14.37,3.53,3.82-3.38,9.44-4.47,14.37-3.53h0Z"/><path class="cls-1" d="m161.99,148.58c-4.96.47-9.84,1.38-14.37,3.53,3.82-3.38,9.44-4.47,14.37-3.53h0Z"/><path class="cls-1" d="m161.99,151.49c-4.96.47-9.84,1.38-14.37,3.53,3.82-3.38,9.44-4.47,14.37-3.53h0Z"/><path class="cls-1" d="m161.99,155.06c-4.96.47-9.84,1.38-14.37,3.53,3.82-3.38,9.44-4.47,14.37-3.53h0Z"/><path class="cls-2" d="m166.64,144.3s-1.76,12.68-2.04,16.06c-14.44,0-19.52,4.79-19.52,4.79,0,0-5.07-4.79-19.52-4.79-.28-3.38-2.04-16.06-2.04-16.06h-1.83l2.89,19.16s12.68-.99,20.5,4.79c7.82-5.78,20.5-4.79,20.5-4.79l2.89-19.16h-1.83Z"/><path class="cls-1" d="m180.51,120.01h-28.01c-.6-.75-1.52-1.23-2.56-1.23h-10.04l1.8,1.66h.01l2.67,2.47h36.13c1.7,0,3.08,1.38,3.08,3.08v51.91c0,1.7-1.38,3.08-3.08,3.08h-76.84c.42,1.24,2.77,2.9,3.54,2.9h73.29c3.3,0,5.98-2.68,5.98-5.98v-51.91c0-3.3-2.68-5.98-5.98-5.98Z"/><path class="cls-1" d="m137.27,120.44h.01l-1.78-1.66h-2.56c-1.03,0-1.95.48-2.56,1.23h-22.36c-2.24,0-3.84,1.7-4.35,2.9h36.27l-2.67-2.47Z"/></g><text class="cls-7" transform="translate(68.61 202.01)"><tspan x="0" y="0">DailyN</tspan><tspan class="cls-8" x="55.91" y="0">o</tspan><tspan class="cls-9" x="65.99" y="0">v</tspan><tspan class="cls-3" x="75.41" y="0">e</tspan><tspan class="cls-5" x="85.7" y="0">l</tspan><tspan class="cls-3" x="91.16" y="0">s</tspan></text></svg>